<svg xmlns="http://www.w3.org/2000/svg" xmlns:xlink="http://www.w3.org/1999/xlink" viewBox="0 0 93.44 93.06"><defs><style>.cls-1{fill:url(#Blue);}.cls-2{fill:url(#Blue-2);}.cls-3{fill:url(#Green);}.cls-4{fill:url(#Green-2);}</style><linearGradient id="Blue" y1="32.24" x2="42.56" y2="32.24" gradientUnits="userSpaceOnUse"><stop offset="0" stop-color="#2bc4f3"/><stop offset="0.5" stop-color="#00aeee"/><stop offset="1" stop-color="#0095da"/></linearGradient><linearGradient id="Blue-2" x1="68.97" y1="27.67" x2="74.11" y2="66.7" xlink:href="#Blue"/><linearGradient id="Green" x1="40.78" y1="21.49" x2="78.06" y2="21.49" gradientUnits="userSpaceOnUse"><stop offset="0" stop-color="#64c08a"/><stop offset="0.5" stop-color="#00a550"/><stop offset="1" stop-color="#00914c"/></linearGradient><linearGradient id="Green-2" x1="14.27" y1="71.63" x2="51.27" y2="71.63" xlink:href="#Green"/></defs><title>Asset 1</title><g id="Layer_2" data-name="Layer 2"><g id="Objects"><path class="cls-1" d="M42.56,45S28,2.15,12,17.19s-16.1,34,0,33.28A128.39,128.39,0,0,0,42.56,45Z"/><path class="cls-2" d="M51.13,50.15S63.88,93.58,80.46,79.23,98,46,81.88,46A128.82,128.82,0,0,0,51.13,50.15Z"/><path class="cls-3" d="M49.74,43s41-19.15,24.33-33.38S38.56-2.72,41,13.21A128.72,128.72,0,0,0,49.74,43Z"/><path class="cls-4" d="M43.68,50.21S1.89,67.59,18,82.52s35,13.82,33.21-2.2A128.69,128.69,0,0,0,43.68,50.21Z"/></g></g></svg>